<?xml version="1.0" ?>
<!-- Uploaded to: SVG Repo, www.svgrepo.com, Generator: SVG Repo Mixer Tools -->
<svg width="800px" height="800px" viewBox="0 0 256 256" data-name="Layer 1" id="Layer_1" xmlns="http://www.w3.org/2000/svg">
<defs>
<style>.cls-1{fill:#84d0f7;}.cls-2{fill:#2d2d2d;}.cls-3{fill:#aa392d;}.cls-4{fill:#7c211a;}.cls-5{fill:#843f2c;}.cls-6,.cls-7{opacity:0.2;}.cls-7{fill:#020202;}</style>
</defs>
<g data-name="Female 3" id="Female_3">
<path class="cls-1" d="M249.89,128.5a121.38,121.38,0,0,1-37.71,88h-167a106.25,106.25,0,0,1-9-8.91l-.82-1c-7-8.31-29.6-37.79-28.42-78.11C8.52,72.64,55.48,7,128.4,7A121.49,121.49,0,0,1,249.89,128.5Z" id="Wallpaper"/>
<path class="cls-2" d="M191.85,153.06c-8.23,12.48-26.51,18.08-47.59,16.3a47.52,47.52,0,0,0,5.36-3.43c.55-.41,1.09-.82,1.62-1.25,9.39-7.54,17.19-19.11,21.82-32.16A79.18,79.18,0,0,0,177.55,111c0-.4,0-.81.06-1.22a68.09,68.09,0,0,0,0-7c-.05-1.15-.15-2.3-.28-3.45-.16-1.42-.37-2.84-.62-4.25-.16-.88-.33-1.75-.53-2.64,3.63,1.06,6.13,1.51,7.57.65a2.2,2.2,0,0,0,.8-.75c4.9-7.38-20.42-48.2-56.24-48.2C93.18,44.1,67.11,84.83,72,92.3c1.2,1.82,4,1.39,8.58,0-.21.91-.4,1.81-.56,2.7-.26,1.45-.47,2.9-.63,4.37a68.86,68.86,0,0,0-.33,10.85c.05,1,.11,2,.21,3.07a79.65,79.65,0,0,0,3.81,18.21,78.27,78.27,0,0,0,13.6,25,58.43,58.43,0,0,0,8.54,8.48c.59.47,1.2.93,1.79,1.36a44.66,44.66,0,0,0,4.91,3.1c-13.16,1.18-30.51.15-42.19-10.6a31.37,31.37,0,0,1-5.06-5.8c-2.84-4.26-7.1-15.36,2.42-53.69C72.25,78.77,75.3,66.51,87,56.31c15.12-13.2,33.81-13.46,39.67-13.53.48,0,1,0,1.58,0h.14c.57,0,1.1,0,1.58,0,5.86.07,24.55.33,39.67,13.53,11.66,10.2,14.71,22.46,19.83,43.06C196.14,126.39,199.72,141.14,191.85,153.06Z" id="Hairs"/>
<path class="cls-3" d="M221.43,206.63a118.16,118.16,0,0,1-9.25,9.87A121.47,121.47,0,0,1,128.4,250c-25.87,0-47.48-9-63.29-18.72a143.43,143.43,0,0,1-20-14.78,101.89,101.89,0,0,1-9-8.93c-.24-.26-.52-.59-.83-1a111.64,111.64,0,0,1,25.22-18.92,131.12,131.12,0,0,1,27.6-11.37q20,17.72,40,35.41,20.2-17.72,40.44-35.41c.28.09.57.15.85.24a1.31,1.31,0,0,0,.28.09,132.81,132.81,0,0,1,26.4,11A112.82,112.82,0,0,1,221.43,206.63Z" id="Sweater"/>
<path class="cls-4" d="M168.62,176.32q-20.2,17.72-40.44,35.41-20-17.72-40-35.41l1.61-.46,1-.28s.07,0,.11,0c1-.26,2.19-.56,3.52-.87q16.86,14.46,33.75,29,17.09-14.5,34.18-29C165.32,175.38,167.66,176,168.62,176.32Z" id="Neckband"/>
<path class="cls-5" d="M162.34,174.68q-17.09,14.46-34.18,29-16.86-14.5-33.75-29c1.45-.35,3-.68,4.49-1s2.8-.54,4.15-.76a38.29,38.29,0,0,0,1.66-5.16c.22-1,.4-1.88.55-2.76a36.61,36.61,0,0,0,8.79,5.53c.5.22,1.07.49,1.75.77a31.33,31.33,0,0,0,24.45,0c.9-.37,1.66-.72,2.3-1a39,39,0,0,0,8.68-5.55c.29,1.29.63,2.64,1.07,4.06s.9,2.87,1.4,4.16a.15.15,0,0,1,.09,0c1.27.22,2.45.44,3.5.66h0C159.06,173.91,160.72,174.29,162.34,174.68Z" id="Neck"/>
<path class="cls-6" d="M169.75,176.65c-.83.94-1.68,1.86-2.55,2.73a55.76,55.76,0,0,1-6.26,5.45,43.06,43.06,0,0,1-9.47,5.36,34.11,34.11,0,0,1-6.58,1.94,29.76,29.76,0,0,1-6,.53,31.86,31.86,0,0,1-11.57-2.41l-.65-.26a41.41,41.41,0,0,1-8.27-4.73,60,60,0,0,1-12.64-12.79c-.57-.76-1.12-1.55-1.66-2.36.11-.35.22-.7.3-1.07a35.2,35.2,0,0,0,.9-4c.59.48,1.2.94,1.79,1.38a42.9,42.9,0,0,0,4.9,3.08.66.66,0,0,0,.2.11l.52.29.64.32.74.35.44.2.37.18.46.19.44.18.22.09c.17.08.35.15.52.21s.46.16.68.24c0,0,0,0,0,0l.72.24.18.06.5.16.77.24a2.21,2.21,0,0,1,.35.08l.7.2a29.73,29.73,0,0,0,4.52.79,3.73,3.73,0,0,0,.48,0,1.62,1.62,0,0,0,.31,0,4.58,4.58,0,0,0,.63.05l.55,0h1.18a31.41,31.41,0,0,0,9.71-1.6l0,0a3.19,3.19,0,0,0,.37-.13c.65-.2,1.29-.46,1.94-.7l.18-.09.83-.35.22-.08c1-.44,1.92-.9,2.86-1.42a47.85,47.85,0,0,0,5.38-3.44l1.6-1.22c.31,1.35.68,2.8,1.14,4.33.41,1.38.87,2.67,1.33,3.87l1.1.2,1.09.19,1.07.2.81.17.52.11c1.36.29,2.72.57,4.05.9,2.12.5,4.2,1,6.28,1.64Z" id="NeckShadow"/>
<path class="cls-5" d="M186.26,120.58c-.16,5.17-3.46,10.41-7.16,12.34a7.55,7.55,0,0,1-1.57.6l-.11,0a5,5,0,0,1-2,.07,5.13,5.13,0,0,1-2-.88l-.28-.21a7.26,7.26,0,0,1-1.12-1.1c-2.66-3.22-3.75-9.25-2-14.06a14.58,14.58,0,0,1,3.22-5,9,9,0,0,1,4.41-2.58,5.86,5.86,0,0,1,2.36,0C184.37,110.61,186.39,116.25,186.26,120.58Z" id="RightEar"/>
<path class="cls-6" d="M186.27,120.57c-.18,5.19-3.48,10.41-7.18,12.36a8.1,8.1,0,0,1-1.55.59l-.13,0a4.85,4.85,0,0,1-4.07-.81c-.09-.06-.17-.13-.28-.22a6.76,6.76,0,0,1-1.12-1.09c-2.67-3.21-3.76-9.25-2-14.06a14.68,14.68,0,0,1,3.22-5,10,10,0,0,1,3.13-2.19,7.12,7.12,0,0,1,1.29-.39,5.52,5.52,0,0,1,2.36,0,2.21,2.21,0,0,1,.35.08C184.47,110.91,186.4,116.37,186.27,120.57Z" id="RightEarShadow"/>
<path class="cls-5" d="M84.75,131.42a7.17,7.17,0,0,1-1.4,1.31,5.09,5.09,0,0,1-2,.88,5.21,5.21,0,0,1-2-.06l-.12,0a7.27,7.27,0,0,1-1.57-.61c-3.69-1.92-7-7.16-7.16-12.33-.13-4.33,1.9-10,6.29-10.85,2.5-.5,4.89.71,6.77,2.6a14.3,14.3,0,0,1,3.22,5C88.51,122.17,87.42,128.2,84.75,131.42Z" id="LeftEar"/>
<path class="cls-5" d="M177.61,109.75c0,.39,0,.81-.07,1.22a78,78,0,0,1-4.48,21.54,84.19,84.19,0,0,1-5.23,11.73,67.66,67.66,0,0,1-16.58,20.45l0,0-1.6,1.22a47.85,47.85,0,0,1-5.38,3.44c-.94.52-1.9,1-2.86,1.42l-.22.08-.83.35-.18.09c-.65.24-1.29.5-1.94.7a3.19,3.19,0,0,1-.37.13l0,0a31.41,31.41,0,0,1-9.71,1.6h-1.18l-.55,0a4.58,4.58,0,0,1-.63-.05,1.62,1.62,0,0,1-.31,0,3.73,3.73,0,0,1-.48,0,29.73,29.73,0,0,1-4.52-.79l-.7-.2a2.21,2.21,0,0,0-.35-.08l-.77-.24-.5-.16-.18-.06-.72-.24s0,0,0,0c-.22-.08-.46-.15-.68-.24s-.35-.13-.52-.21l-.22-.09-.44-.18-.46-.19-.37-.18-.44-.2-.74-.35-.64-.32-.52-.29a.66.66,0,0,1-.2-.11,42.9,42.9,0,0,1-4.9-3.08c-.59-.44-1.2-.9-1.79-1.38a46.89,46.89,0,0,1-4.42-4,55.49,55.49,0,0,1-4.13-4.5v0a77.82,77.82,0,0,1-13.58-25,79.38,79.38,0,0,1-3.83-18.2c-.09-1-.15-2-.2-3.08a67.72,67.72,0,0,1,.33-10.85c.15-1.46.37-2.91.64-4.35.15-.9.35-1.79.54-2.71,0,0,0-.11,0-.15.19-.81.41-1.64.63-2.45a73.19,73.19,0,0,1,4.64-12.56,66.63,66.63,0,0,1,15-20.62c1-.87,2-1.71,3-2.49,7-5.41,15.13-8.82,24.36-8.84,12.14-.06,22.57,5.77,30.67,14.33A62.1,62.1,0,0,1,164,65.64a72.35,72.35,0,0,1,8.62,15.44c.56,1.37,1.07,2.75,1.55,4.15a72,72,0,0,1,2,7.17c.2.88.37,1.75.53,2.65.24,1.4.46,2.82.61,4.24.13,1.16.22,2.3.28,3.46A65.36,65.36,0,0,1,177.61,109.75Z" id="Head"/>
<path class="cls-7" d="M177.58,102.75c-8.22-3-23.68-12-48.66-14.61C107.05,85.91,91.33,90,82,91.92c9.14-2.84,24.36-8.53,46.32-8.53,23.27,0,38.95,6.37,47.89,9,.2.88.37,1.75.53,2.65.24,1.4.46,2.82.61,4.24C177.43,100.45,177.52,101.59,177.58,102.75Z" id="HairsShadow"/>
<path class="cls-2" d="M184.52,92.3a2.21,2.21,0,0,1-.79.76c-1.44.85-4,.39-7.57-.66-8.94-2.64-24.62-9-47.89-9-22,0-37.18,5.69-46.32,8.53,0,0,0,0,0,0-.46.15-.87.26-1.29.39-4.55,1.36-7.37,1.77-8.57,0-4.92-7.46,21.15-48.21,56.23-48.21C164.09,44.09,189.42,84.93,184.52,92.3Z" data-name="Hairs" id="Hairs-2"/>
</g>
</svg>